<svg xmlns="http://www.w3.org/2000/svg" viewBox="0 0 203.5 203.4"><defs><style>.a{fill:#2179bf;}.b{fill:#fff;}</style></defs><path class="a" d="M1052.77,1101.65H948a49.27,49.27,0,0,1-49.3-49.3V947.55a49.27,49.27,0,0,1,49.3-49.3h104.9a49.27,49.27,0,0,1,49.3,49.3v104.9A49.4,49.4,0,0,1,1052.77,1101.65Z" transform="translate(-898.67 -898.25)"/><path class="b" d="M1069.07,996.75H1043V981a10.39,10.39,0,0,1,10.4-10.4h15.7v-33.2h-18.4a40.89,40.89,0,0,0-40.9,40.9v18.5h-16.2v28.1h16.2v76.8H1043v-76.8h26.1Z" transform="translate(-898.67 -898.25)"/></svg>