<svg xmlns="http://www.w3.org/2000/svg" viewBox="0 0 203.5 203.4"><defs><style>.a{fill:#007acc;}.b{fill:#fff;}</style></defs><path class="a" d="M154.1,203.4H49.33A49.27,49.27,0,0,1,0,154.16V49.3A49.27,49.27,0,0,1,49.27,0h105a49.27,49.27,0,0,1,49.3,49.24v105A49.39,49.39,0,0,1,154.1,203.4Z" transform="translate(-0.03 0)"/><path class="b" d="M140.7,21.2h-78A41.54,41.54,0,0,0,21.2,62.7v78a41.54,41.54,0,0,0,41.5,41.5h78a41.54,41.54,0,0,0,41.5-41.5V62.75A41.59,41.59,0,0,0,140.7,21.2Zm27.4,119.5A27.34,27.34,0,0,1,140.8,168h-78a27.34,27.34,0,0,1-27.3-27.3V62.75a27.34,27.34,0,0,1,27.3-27.3h78a27.34,27.34,0,0,1,27.3,27.3Z" transform="translate(-0.03 0)"/><path class="b" d="M101.7,60.6a41.1,41.1,0,1,0,41.1,41.1h0A41.15,41.15,0,0,0,101.7,60.6Zm0,68.1a27,27,0,1,1,27-27h0a27,27,0,0,1-26.95,27.05h0Z" transform="translate(-0.03 0)"/><circle class="b" cx="146.07" cy="59.5" r="8"/></svg>