<svg xmlns="http://www.w3.org/2000/svg" viewBox="0 0 203.5 203.4"><defs><style>.a{fill:#2179bf;}.b{fill:#fff;}</style></defs><path class="a" d="M1052.87,1101.65H948a49.27,49.27,0,0,1-49.3-49.3V947.55a49.27,49.27,0,0,1,49.3-49.3h104.9a49.27,49.27,0,0,1,49.3,49.3v104.9A49.38,49.38,0,0,1,1052.87,1101.65Z" transform="translate(-898.67 -898.25)"/><path class="b" d="M1049.57,958c-12.4-25-42.5-32.9-70.6-22.7a50.55,50.55,0,0,0-32.2,51.8c1.1,9.7,4.1,16.8,9.2,21.1a35.59,35.59,0,0,0,5.9,4.1,2.11,2.11,0,0,0,3.1-1.2c.8-2.4,2-6.1,2.6-8.2a2.19,2.19,0,0,0-.7-2.4c-2-1.7-6-5.9-7-14.9-1.8-16,8.2-31.7,24.1-38.2,17.3-7,40.9-4.3,48.3,14.6,6.1,15.6-1.1,46.5-11.9,52.4-5,2.7-9.8,4.6-14,2.9a15.37,15.37,0,0,1-9.3-9.5c-1.2-3.6-1.1-6.8-1.6-12.1l2.1-8.3c.3-.8,1.3-4.2,2.1-7.8,1.6-7.5,1.4-11.9-.7-14.9a8.11,8.11,0,0,0-6.2-3.5c-6.7-.5-15.3,6-15.3,21.5,0,6.1,2.1,11.7,2.4,14.6l-12.8,50a8,8,0,0,0-.3,3.1l1.1,16.9a1.8,1.8,0,0,0,3.3.9l9-14.3a9.87,9.87,0,0,0,1.2-2.8l8-31.4a26.53,26.53,0,0,0,12.1,9.9c7.9,3.1,18.3,2.7,27.8-2.4C1047.77,1017.15,1062.17,983.45,1049.57,958Z" transform="translate(-898.67 -898.25)"/></svg>