<svg xmlns="http://www.w3.org/2000/svg" viewBox="0 0 218.49 209.96"><defs><style>.a{fill:#2179bf;}</style></defs><path class="a" d="M948.8,963.75a1.43,1.43,0,0,0-.82.34q-10.69,6.63-21.38,13.29l-14.36,8.92-.46.26a.45.45,0,0,1-.64-.08l0-.08-.44-.66-19.08-29.48c-.07-.1-.13-.2-.19-.3-.32-.54-.33-.6.15-1.05.77-.72,1.56-1.43,2.34-2.14l7.09-6.45,11.44-10.38,7.14-6.54,11.12-10.13,6.51-5.94,10.45-9.56a3.13,3.13,0,0,1,1.33-.65L960.69,900c5-1.33,9.92-2.65,14.87-4a1.63,1.63,0,0,1,1.59.35,35.58,35.58,0,0,0,17.72,7.73,30.43,30.43,0,0,0,17-2.62,39.39,39.39,0,0,0,9.17-5.86,2,2,0,0,1,2-.44q8.71,2.16,17.45,4.23l13.86,3.33a3.82,3.82,0,0,1,1.75.93c3.65,3.35,7.33,6.67,11,10l8.14,7.39,10.89,9.88,7.95,7.22,11.27,10.23,3.84,3.5c.59.53.6.61.14,1.33l-5.24,8-13.47,20.65c-.76,1.17-.76,1.15-2,.49l-14.4-8-16-8.81-3.5-1.91c-.31.17-.24.4-.25.59s0,.65,0,1v138.94c0,.74-.15.84-.9.87H950.41c-1.49,0-1.5,0-1.5-1.53V965A3.74,3.74,0,0,0,948.8,963.75Z" transform="translate(-891.16 -895.03)"/></svg>