<svg xmlns="http://www.w3.org/2000/svg" viewBox="0 0 203.5 203.4"><defs><style>.a{fill:#2179bf;}.b{fill:#fff;}</style></defs><path class="a" d="M1052.87,1101.65H948a49.27,49.27,0,0,1-49.3-49.3V947.55a49.27,49.27,0,0,1,49.3-49.3h104.9a49.27,49.27,0,0,1,49.3,49.3v104.9A49.25,49.25,0,0,1,1052.87,1101.65Z" transform="translate(-898.67 -898.25)"/><path class="b" d="M1059.37,950.55s-10.1,6.2-16.1,6.2c0,0-4.5-7.6-17.6-8.1s-20.3,8.2-23.7,13.2-3.4,16.3-2.3,18.4c0,0-32.2.4-53.3-26.7,0,0-11.3,20,8.1,33.8a26.69,26.69,0,0,1-11.8-2.7s-.1,19.8,20.4,25.3c0,0-6.2,2.2-11.2.6,0,0,3.6,15.7,23.3,17.7,0,0-11.6,12.6-37.2,10.6,0,0,36,27.7,77.9,1.2,37.3-23.6,34.5-66,34.5-66s9.8-6.3,12.6-13a81,81,0,0,1-14.3,3.7C1048.77,964.65,1059.67,955.85,1059.37,950.55Z" transform="translate(-898.67 -898.25)"/></svg>